#!OML:ASF H:\Male1\Project 1\Capture day 1\Session 1\Male1.ASF
:FULLY-SPECIFIED
:DEGREES
437
root -20.1239 14.2576 -1.10132 881.192 -93.953 186.464
lowerback 18.5012 0.32439 -0.613981
upperback 9.27538 -0.280402 -0.000419082
thorax -0.413624 -0.420429 0.400018
lowerneck -8.5746 3.07413 5.54364
upperneck 3.69576 4.03322 -9.65569
head 2.81234 1.71285 -3.62607
rclavicle -1.67026e-015 1.90398e-015
rhumerus -57.6361 6.1486 -87.6174
rradius 96.8959
rwrist -33.0027
rhand -36.7471 18.5484
rfingers 7.12502
rthumb -9.83065 -11.2021
lclavicle -1.67026e-015 1.90398e-015
lhumerus -52.16 -5.83936 85.273
lradius 102.671
lwrist 23.1162
lhand -30.9184 1.84314
lfingers 7.12502
lthumb -4.20434 31.7814
rfemur -25.8063 11.2784 18.6097
rtibia 31.3184
rfoot -21.806 -23.8691
rtoes -22.8734
lfemur -20.7722 2.12494 -22.2581
ltibia 74.0238
lfoot -10.7853 -2.93722
ltoes -17.0695
438
root -20.5885 14.192 -1.11775 874.709 -95.4716 192.655
lowerback 18.2514 0.254219 -1.0157
upperback 9.22276 -0.417309 -0.146867
thorax -0.339689 -0.490302 0.496223
lowerneck -8.48229 2.63697 5.16167
upperneck 4.28784 3.50893 -9.25814
head 2.91806 1.45598 -3.47087
rclavicle 7.0817e-015 -1.93815e-015
rhumerus -58.1006 5.81019 -86.9981
rradius 96.538
rwrist -33.2633
rhand -37.1242 18.1686
rfingers 7.12502
rthumb -10.1945 -11.5644
lclavicle 7.0817e-015 -1.93815e-015
lhumerus -52.0839 -5.80508 85.8113
lradius 104.777
lwrist 21.9814
lhand -30.2954 1.79211
lfingers 7.12502
lthumb -3.60275 31.7414
rfemur -24.6214 10.0095 17.9383
rtibia 31.957
rfoot -20.2784 -23.5577
rtoes -21.6296
lfemur -21.0089 2.26946 -22.585
ltibia 75.8731
lfoot -11.6805 -3.03542
ltoes -16.4927
439
root -21.0319 14.1253 -1.12628 873.746 -96.6392 193.483
lowerback 17.984 0.184147 -0.989111
upperback 9.10677 -0.47888 -0.170519
thorax -0.326235 -0.509088 0.465965
lowerneck -8.44107 2.24295 4.83333
upperneck 4.8343 3.03578 -8.98252
head 3.02976 1.21919 -3.3589
rclavicle 9.44227e-016 -1.09332e-015
rhumerus -58.2552 5.85157 -86.3711
rradius 95.9804
rwrist -33.4307
rhand -37.5704 17.7601
rfingers 7.12502
rthumb -10.6249 -11.9513
lclavicle 9.44227e-016 -1.09332e-015
lhumerus -52.1373 -5.63976 86.4504
lradius 106.614
lwrist 20.5873
lhand -29.6297 1.4308
lfingers 7.12502
lthumb -2.95988 31.39
rfemur -24.1475 7.79566 17.7737
rtibia 33.6569
rfoot -17.5563 -22.6343
rtoes -21.0334
lfemur -21.561 2.36503 -22.4943
ltibia 77.1882
lfoot -12.7116 -2.70373
ltoes -15.3231
440
root -21.4496 14.0665 -1.13045 875.42 -97.3985 191.739
lowerback 17.8112 0.119474 -0.650338
upperback 8.98339 -0.486983 -0.0490043
thorax -0.37048 -0.495766 0.403283
lowerneck -8.41958 1.92959 4.61327
upperneck 5.26276 2.65972 -8.87797
head 3.1233 1.02612 -3.31208
rclavicle -6.4605e-016 9.34288e-015
rhumerus -57.9552 6.36785 -85.7529
rradius 95.1357
rwrist -33.5824
rhand -38.0872 17.2553
rfingers 7.12502
rthumb -11.1234 -12.4299
lclavicle -6.4605e-016 9.34288e-015
lhumerus -52.2605 -5.2097 87.1522
lradius 107.974
lwrist 18.874
lhand -28.9997 0.613342
lfingers 7.12502
lthumb -2.35138 30.5801
rfemur -24.1576 4.96287 18.0692
rtibia 36.0061
rfoot -14.3084 -20.9897
rtoes -21.0092
lfemur -22.3089 2.37349 -22.0143
ltibia 77.8973
lfoot -13.7968 -2.15496
ltoes -14.4493
441
root -21.8355 14.0224 -1.13386 879.18 -97.7565 187.972
lowerback 17.7509 0.0545257 -0.0700665
upperback 8.89455 -0.464467 0.214195
thorax -0.435375 -0.466658 0.348311
lowerneck -8.42549 1.72179 4.49914
upperneck 5.52584 2.40804 -8.86273
head 3.18409 0.894848 -3.30312
rclavicle -2.45002e-014 3.97569e-015
rhumerus -57.1113 7.31081 -85.1741
rradius 93.9924
rwrist -33.6741
rhand -38.6293 16.7497
rfingers 7.12502
rthumb -11.6461 -12.9066
lclavicle -2.45002e-014 3.97569e-015
lhumerus -52.3379 -4.45135 87.8562
lradius 108.692
lwrist 17.0618
lhand -28.5593 -0.466718
lfingers 7.12502
lthumb -1.9261 29.5043
rfemur -24.4332 2.28501 18.7857
rtibia 38.5206
rfoot -11.5324 -19.2249
rtoes -21.2017
lfemur -23.2537 2.27593 -21.1446
ltibia 78.0238
lfoot -14.7978 -1.59014
ltoes -14.2442
442
root -22.19 13.9989 -1.14087 885.4 -97.8168 181.786
lowerback 17.7989 -0.0156559 0.717387
upperback 8.83772 -0.421601 0.613738
thorax -0.520117 -0.428399 0.316688
lowerneck -8.42585 1.5909 4.46396
upperneck 5.68756 2.24496 -8.84668
head 3.22076 0.81129 -3.30188
rclavicle -6.55989e-015 -1.59028e-014
rhumerus -55.8517 8.52785 -84.6642
rradius 92.6366
rwrist -33.642
rhand -39.1013 16.3147
rfingers 7.12502
rthumb -12.1013 -13.3153
lclavicle -6.55989e-015 -1.59028e-014
lhumerus -52.3455 -3.48811 88.5132
lradius 108.647
lwrist 15.4877
lhand -28.4858 -1.4791
lfingers 7.12502
lthumb -1.85507 28.4926
rfemur -24.7508 0.323298 19.9521
rtibia 40.8581
rfoot -9.70308 -17.9064
rtoes -21.5661
lfemur -24.3094 2.0432 -19.8515
ltibia 77.5296
lfoot -15.6022 -1.08373
ltoes -14.5914
443
root -22.5186 13.9914 -1.1515 892.485 -97.8277 174.754
lowerback 17.9109 -0.0778278 1.47512
upperback 8.82379 -0.377826 1.03757
thorax -0.589563 -0.395233 0.327724
lowerneck -8.43878 1.48948 4.47754
upperneck 5.83427 2.10796 -8.7226
head 3.25591 0.747301 -3.27394
rclavicle -1.04362e-014 8.74653e-015
rhumerus -54.3727 9.77449 -84.264
rradius 91.2124
rwrist -33.4366
rhand -39.4347 16.1066
rfingers 7.12502
rthumb -12.4228 -13.5042
lclavicle -1.04362e-014 8.74653e-015
lhumerus -52.2576 -2.51762 89.063
lradius 107.844
lwrist 14.559
lhand -28.8326 -2.1514
lfingers 7.12502
lthumb -2.19007 27.8171
rfemur -24.7924 -0.789517 21.2788
rtibia 42.7815
rfoot -9.25019 -17.1029
rtoes -21.5354
lfemur -25.3118 1.57056 -18.4806
ltibia 76.4076
lfoot -16.2484 -0.627877
ltoes -14.8326
444
root -22.8282 14.0088 -1.16275 898.191 -97.8964 169.136
lowerback 18.0021 -0.104586 1.98471
upperback 8.84025 -0.330596 1.36251
thorax -0.615214 -0.366847 0.374224
lowerneck -8.45226 1.3573 4.51678
upperneck 6.01747 1.91802 -8.44107
head 3.29703 0.665263 -3.20483
rclavicle -1.88845e-014 5.1684e-015
rhumerus -52.9551 10.8108 -84.0212
rradius 89.9315
rwrist -33.1111
rhand -39.5909 16.2085
rfingers 7.12502
rthumb -12.5734 -13.3931
lclavicle -1.88845e-014 5.1684e-015
lhumerus -52.088 -1.77275 89.4557
lradius 106.302
lwrist 14.5261
lhand -29.5051 -2.39814
lfingers 7.12502
lthumb -2.83954 27.5627
rfemur -24.4834 -1.01793 22.3879
rtibia 44.197
rfoot -9.69415 -17.1008
rtoes -21.1685
lfemur -26.0482 0.828193 -17.4221
ltibia 74.5558
lfoot -16.6884 -0.0619333
ltoes -14.6971
445
root -23.1205 14.0471 -1.17219 902.064 -98.022 165.446
lowerback 18.0351 -0.0996575 2.28218
upperback 8.83157 -0.274 1.55234
thorax -0.638681 -0.335183 0.396334
lowerneck -8.42209 1.15037 4.51606
upperneck 6.20756 1.61871 -7.96404
head 3.32419 0.538988 -3.07506
rclavicle -1.43125e-014 1.94809e-014
rhumerus -51.8422 11.4965 -83.9728
rradius 88.9851
rwrist -32.7996
rhand -39.5428 16.4973
rfingers 7.12502
rthumb -12.5271 -13.1072
lclavicle -1.43125e-014 1.94809e-014
lhumerus -51.8749 -1.38745 89.6588
lradius 104.115
lwrist 15.3026
lhand -30.2653 -2.44189
lfingers 7.12502
lthumb -3.57364 27.5079
rfemur -23.9327 -0.584909 23.2092
rtibia 45.0831
rfoot -10.5277 -17.6342
rtoes -20.5921
lfemur -26.5762 -0.166475 -16.7362
ltibia 72.0703
lfoot -16.9131 0.59904
ltoes -13.9051
446
root -23.4056 14.1073 -1.17038 900.809 -98.1723 166.988
lowerback 17.8987 -0.061955 2.02107
upperback 8.82317 -0.265128 1.48417
thorax -0.57899 -0.333938 0.469184
lowerneck -8.37988 0.883683 4.47059
upperneck 6.38889 1.23655 -7.41013
head 3.3425 0.37494 -2.91876
rclavicle 5.56597e-015 3.57812e-015
rhumerus -51.1167 11.8953 -84.0979
rradius 88.4592
rwrist -32.62
rhand -39.2703 16.7965
rfingers 7.12502
rthumb -12.2643 -12.8239
lclavicle 5.56597e-015 3.57812e-015
lhumerus -51.657 -1.29632 89.6685
lradius 101.369
lwrist 16.486
lhand -30.88 -2.54833
lfingers 7.12502
lthumb -4.16724 27.3907
rfemur -23.1106 -0.0778305 23.1745
rtibia 45.5284
rfoot -11.6312 -18.0481
rtoes -19.6307
lfemur -26.6837 -1.49816 -17.0016
ltibia 68.9497
lfoot -17.0577 1.42456
ltoes -12.8721
447
root -23.6763 14.1817 -1.15805 900.808 -98.1118 167.422
lowerback 17.6569 -0.00344736 1.99378
upperback 8.76718 -0.190309 1.40366
thorax -0.514606 -0.290736 0.384843
lowerneck -8.37504 0.600341 4.38837
upperneck 6.52642 0.833157 -6.88348
head 3.35521 0.197998 -2.76574
rclavicle 2.46493e-014 -1.94809e-014
rhumerus -50.7143 12.1289 -84.351
rradius 88.312
rwrist -32.6115
rhand -38.7808 16.9901
rfingers 7.12502
rthumb -11.7923 -12.6579
lclavicle 2.46493e-014 -1.94809e-014
lhumerus -51.4429 -1.33647 89.4906
lradius 98.1689
lwrist 17.5685
lhand -31.2508 -2.76639
lfingers 7.12502
lthumb -4.52534 27.1653
rfemur -22.2534 0.618181 23.2798
rtibia 45.5713
rfoot -12.7008 -18.4882
rtoes -18.8199
lfemur -26.6813 -2.73761 -17.0958
ltibia 65.502
lfoot -17.12 2.02061
ltoes -11.9809
448
root -23.9329 14.2676 -1.13719 901.508 -97.8548 167.299
lowerback 17.3392 0.0651641 2.06065
upperback 8.6605 -0.0850462 1.32072
thorax -0.463796 -0.227987 0.239868
lowerneck -8.41685 0.339003 4.34003
upperneck 6.32664 0.434222 -6.28026
head 3.63759 0.0455595 -2.87812
rclavicle 1.47598e-014 -3.97569e-015
rhumerus -50.5209 12.3744 -84.6809
rradius 88.4137
rwrist -32.7326
rhand -38.1397 17.0009
rfingers 7.12502
rthumb -11.174 -12.6816
lclavicle 1.47598e-014 -3.97569e-015
lhumerus -51.2879 -1.3423 89.138
lradius 94.5999
lwrist 18.1474
lhand -31.3985 -3.18676
lfingers 7.12502
lthumb -4.66797 26.7418
rfemur -21.4912 1.22523 23.4215
rtibia 45.3471
rfoot -13.5524 -18.7028
rtoes -18.5071
lfemur -26.5922 -3.91179 -17.0723
ltibia 61.8375
lfoot -17.1232 2.32443
ltoes -11.7899
449
root -24.1765 14.3625 -1.11095 901.868 -97.3938 167.576
lowerback 17.0099 0.148511 2.01327
upperback 8.55256 0.0210021 1.21663
thorax -0.408098 -0.168157 0.137938
lowerneck -8.32815 0.126799 4.09098
upperneck 6.13716 0.138229 -5.79877
head 3.52647 -0.0836696 -2.67427
rclavicle -8.15017e-015 -7.15625e-015
rhumerus -50.3969 12.7031 -85.0502
rradius 88.6347
rwrist -32.8675
rhand -37.4181 16.9416
rfingers 7.12502
rthumb -10.478 -12.7772
lclavicle -8.15017e-015 -7.15625e-015
lhumerus -51.1823 -1.15937 88.6225
lradius 90.7623
lwrist 18.1938
lhand -31.5505 -3.74941
lfingers 7.12502
lthumb -4.81469 26.1759
rfemur -20.7953 1.84423 23.4574
rtibia 44.9386
rfoot -14.1074 -18.8127
rtoes -18.8545
lfemur -26.3375 -5.0667 -17.0607
ltibia 58.1301
lfoot -17.1528 2.35312
ltoes -12.3406
450
root -24.4072 14.4623 -1.08112 901.434 -96.7161 168.669
lowerback 16.7029 0.254027 1.78119
upperback 8.45141 0.128165 1.08565
thorax -0.357527 -0.113539 0.112854
lowerneck -8.16957 -0.0246758 3.72669
upperneck 5.76253 -0.0712955 -5.24751
head 3.34393 -0.169075 -2.41763
rclavicle -3.97569e-016 7.15625e-015
rhumerus -50.2881 13.1142 -85.4354
rradius 88.8943
rwrist -32.9756
rhand -36.7336 16.8648
rfingers 7.12502
rthumb -9.81766 -12.8863
lclavicle -3.97569e-016 7.15625e-015
lhumerus -51.144 -0.775763 87.9749
lradius 86.736
lwrist 17.9256
lhand -31.8862 -4.07474
lfingers 7.12502
lthumb -5.13881 25.8429
rfemur -20.2675 2.61399 23.3388
rtibia 44.5003
rfoot -14.2676 -18.991
rtoes -19.7048
lfemur -25.9069 -6.26469 -17.1024
ltibia 54.4933
lfoot -17.1794 2.23521
ltoes -13.2409
451
root -24.6253 14.5545 -1.048 901.114 -95.8478 169.634
lowerback 16.4361 0.370704 1.51096
upperback 8.36431 0.243633 0.952312
thorax -0.312765 -0.0572315 0.10644
lowerneck -7.9625 -0.139215 3.2595
upperneck 5.24314 -0.228363 -4.59237
head 3.10745 -0.226507 -2.10449
rclavicle 9.79014e-015 2.38542e-015
rhumerus -50.1269 13.5575 -85.8297
rradius 89.1125
rwrist -33.0825
rhand -36.183 16.8362
rfingers 7.12502
rthumb -9.28634 -12.9393
lclavicle 9.79014e-015 2.38542e-015
lhumerus -51.1827 -0.250302 87.2237
lradius 82.6533
lwrist 17.678
lhand -32.3876 -3.76076
lfingers 7.12502
lthumb -5.62293 26.1446
rfemur -19.8477 3.49503 23.2437
rtibia 44.1089
rfoot -14.2874 -19.1391
rtoes -21.0513
lfemur -25.3603 -7.58534 -17.0514
ltibia 51.0719
lfoot -17.2111 2.15543
ltoes -14.9938
